<?xml version="1.0" encoding="utf-8"?>
<!-- Generator: Adobe Illustrator 23.0.3, SVG Export Plug-In . SVG Version: 6.00 Build 0)  -->
<svg version="1.1" xmlns="http://www.w3.org/2000/svg" xmlns:xlink="http://www.w3.org/1999/xlink" x="0px" y="0px"
	 viewBox="0 0 540.7 255.3" style="enable-background:new 0 0 540.7 255.3;" xml:space="preserve">
<style type="text/css">
	.st0{fill:#188F9E;}
	.st1{display:none;}
	.st2{display:inline;}
	.st3{fill:#FFFFFF;}
	.st4{fill:#353535;}
	.st5{opacity:0.8;clip-path:url(#SVGID_2_);fill:#991A1A;}
	.st6{fill:#999999;}
	.st7{fill:#CCCCCC;}
	.st8{fill:#4A85A1;}
	.st9{fill:#3D3D3D;}
	.st10{fill:#226F77;}
	.st11{fill:none;}
</style>
<g id="PackIcon">
</g>
<g id="Ebene_1">
	<rect x="-257.7" y="-288" class="st11" width="1056" height="833.3"/>
	<path class="st0" d="M337.9,16.2H81.9c-37.4,0-67.6,33.2-67.6,74.1v76.8c0,40.9,30.3,74.1,67.6,74.1h69.8c2.5,0,5-1.1,6.8-3.1
		L344.7,34.1C350.8,27.5,346.5,16.2,337.9,16.2z"/>
	<path class="st4" d="M458.6,16.2h-22.2c-2.5,0-5,1.1-6.8,3.1L243.3,223.2c-6,6.6-1.8,17.9,6.8,17.9h208.5
		c37.4,0,67.6-33.2,67.6-74.1V90.2C526.2,49.3,495.9,16.2,458.6,16.2z"/>
	<rect x="-257.7" y="-288" class="st11" width="1056" height="833.3"/>
</g>
</svg>
