<svg id="Ebene_1" data-name="Ebene 1" xmlns="http://www.w3.org/2000/svg" viewBox="0 0 800 525"><defs><style>.cls-1{fill:#188f9e;}.cls-2{fill:#353535;}</style></defs><title>LogoSchrift</title><path class="cls-1" d="M50.89,420.1v28.66H40.32v27.87H8.53V410.32q0-18.72,11.55-31T49.17,367.1q19.33,0,32.34,16.67l-26.08,19q-2.19-6.1-7.75-6.11-7.35,0-7.36,10.18V420.1Z"/><path class="cls-1" d="M110.72,369.76V476.63H81.44V369.76Z"/><path class="cls-1" d="M164.72,447.35v30.3a38.58,38.58,0,0,1-6.58.63q-17.62,0-29.36-11.59T117,437.64A40.44,40.44,0,0,1,157.75,397q18.94,0,29.87,11.07t10.92,30.27v38.28H169.26V440.46q0-6.18-3-9.87a9.93,9.93,0,0,0-8.1-3.67,11.52,11.52,0,0,0-8.3,19.33,10.37,10.37,0,0,0,7.75,3.14A13.3,13.3,0,0,0,164.72,447.35Z"/><path class="cls-1" d="M234.69,369.76v29.91h13.15v30.92H234.69q0,9.33,2.94,12.85T248.39,447v30.77c-1.51,0-2.64.08-3.37.08a39.78,39.78,0,0,1-18.75-4.62,38,38,0,0,1-14.13-12.53q-6.73-10.1-6.73-26.78V369.76Z"/><path class="cls-1" d="M346.7,369.29v30.46a17.8,17.8,0,0,0-5.33-1.18,8.32,8.32,0,0,0-6.18,2.66,8.91,8.91,0,0,0-2.58,6.42c0,2.15.93,4.86,2.81,8.15l2.43,4.22q6.58,11.44,6.58,22.08a35.47,35.47,0,0,1-11.08,26.39,37.29,37.29,0,0,1-27.05,10.8,35.44,35.44,0,0,1-15.19-3.52V444.84c3,1.94,5.71,2.9,8.06,2.9a10.21,10.21,0,0,0,6.93-2.39,7.56,7.56,0,0,0,2.78-6q0-2.34-4.46-10.25-7.12-12.53-7.13-25.06a35.79,35.79,0,0,1,10.77-26,34.86,34.86,0,0,1,25.72-10.92A39.36,39.36,0,0,1,346.7,369.29Z"/><path class="cls-1" d="M383.05,369.76v32.65q7.44-5.4,14.88-5.4,11.28,0,17.89,8.14t6.62,22v49.48H393.16V435.37c0-3.34-.36-5.58-1.06-6.73s-2.08-1.72-4.11-1.72q-4.94,0-4.94,7.28v42.43H353.77V369.76Z"/><path class="cls-1" d="M476.23,447.35v30.3a38.49,38.49,0,0,1-6.58.63q-17.61,0-29.36-11.59t-11.75-29.05A40.44,40.44,0,0,1,469.26,397q18.94,0,29.87,11.07t10.92,30.27v38.28H480.77V440.46q0-6.18-3-9.87a9.93,9.93,0,0,0-8.1-3.67,11.52,11.52,0,0,0-8.3,19.33,10.37,10.37,0,0,0,7.75,3.14A13.27,13.27,0,0,0,476.23,447.35Z"/><path class="cls-1" d="M567.54,369.76h29.29v65.06q0,17.94-9.4,29.21a38.35,38.35,0,0,1-13.74,10.33,40.49,40.49,0,0,1-17.11,3.84q-17.46,0-29.44-11.75a38.79,38.79,0,0,1-12-28.81,39.31,39.31,0,0,1,11.91-28.58Q539,397,555.25,397c1.72,0,4.33.15,7.83.47v32.25a11.65,11.65,0,0,0-7.2-2.81,10.48,10.48,0,0,0-7.79,3.32,11.07,11.07,0,0,0-3.25,8,10.43,10.43,0,0,0,3.37,7.79,11.17,11.17,0,0,0,8.06,3.25q11.28,0,11.27-15.58Z"/><path class="cls-1" d="M642.44,396.93a38.7,38.7,0,0,1,28.46,11.94,40.5,40.5,0,0,1-.16,57.43,41.3,41.3,0,0,1-58,0,39,39,0,0,1-12.06-28.78,38.63,38.63,0,0,1,12.06-28.85Q624.74,396.93,642.44,396.93Zm-.78,28.89a10.68,10.68,0,0,0-8,3.4,12.11,12.11,0,0,0,0,16.64,11,11,0,0,0,16,0,12.11,12.11,0,0,0,0-16.64A10.77,10.77,0,0,0,641.66,425.82Z"/><path class="cls-1" d="M688.29,399.67h29.28v42c0,3.29.34,5.58,1,6.85a3.79,3.79,0,0,0,3.68,1.92q4.93,0,4.93-8.77v-42h29.28v42c0,3.29.36,5.58,1.06,6.85a3.88,3.88,0,0,0,3.72,1.92q4.86,0,4.85-8.77v-42H795.4v48.07a31.08,31.08,0,0,1-8.85,22.36,28.66,28.66,0,0,1-21.45,9.19q-13,0-23.34-11-11.43,11-23,11-14.65,0-23.49-10.64-7-8.38-7-24.2Z"/><path class="cls-1" d="M409.23,32.71H85.52C38.29,32.71,0,74.64,0,126.36v97.1c0,51.72,38.29,93.64,85.52,93.64h88.26a11.62,11.62,0,0,0,8.58-3.89L417.81,55.39C425.45,47,420,32.71,409.23,32.71Z"/><path class="cls-2" d="M714.48,32.71H533.41a11.61,11.61,0,0,0-8.57,3.89L289.39,294.42c-7.64,8.37-2.23,22.68,8.58,22.68H714.48c47.23,0,85.52-41.92,85.52-93.64v-97.1C800,74.64,761.71,32.71,714.48,32.71Z"/></svg>