<svg id="Ebene_1" data-name="Ebene 1" xmlns="http://www.w3.org/2000/svg" viewBox="0 0 487.6 315.28"><defs><style>.cls-1{fill:#188f9e;}.cls-2{fill:#353535;}</style></defs><title>LogoSchrift</title><path class="cls-1" d="M31,279.2v17.47H24.58v17H5.2V273.24q0-11.42,7-18.88A23.32,23.32,0,0,1,30,246.89q11.79,0,19.71,10.17L33.79,268.65q-1.34-3.72-4.73-3.72-4.48,0-4.48,6.2v8.07Z"/><path class="cls-1" d="M67.48,248.52v65.13H49.64V248.52Z"/><path class="cls-1" d="M100.39,295.81v18.46a23,23,0,0,1-4,.39,24.45,24.45,0,0,1-17.89-7.07,24.87,24.87,0,0,1,17.66-42.47q11.55,0,18.2,6.76T121,290.32v23.33H103.16v-22a9.19,9.19,0,0,0-1.84-6,6.06,6.06,0,0,0-4.94-2.24,7,7,0,0,0-5,11.79,6.31,6.31,0,0,0,4.72,1.91A8.13,8.13,0,0,0,100.39,295.81Z"/><path class="cls-1" d="M143,248.52v18.23h8v18.84h-8q0,5.69,1.79,7.83t6.56,2.15v18.75c-.92,0-1.6.05-2,.05a24.23,24.23,0,0,1-11.43-2.82,23,23,0,0,1-8.61-7.63q-4.11-6.15-4.11-16.32V248.52Z"/><path class="cls-1" d="M211.31,248.23v18.56a11.14,11.14,0,0,0-3.24-.71,5.06,5.06,0,0,0-3.77,1.62,5.4,5.4,0,0,0-1.58,3.91,10.68,10.68,0,0,0,1.72,5l1.48,2.57a27,27,0,0,1,4,13.46,21.58,21.58,0,0,1-6.76,16.08,22.71,22.71,0,0,1-16.48,6.59,21.64,21.64,0,0,1-9.26-2.15V294.28a9.39,9.39,0,0,0,4.91,1.76,6.26,6.26,0,0,0,4.23-1.45,4.61,4.61,0,0,0,1.69-3.65q0-1.44-2.72-6.25a30.7,30.7,0,0,1-4.34-15.27,21.85,21.85,0,0,1,6.56-15.87,21.23,21.23,0,0,1,15.68-6.66A24,24,0,0,1,211.31,248.23Z"/><path class="cls-1" d="M233.47,248.52v19.9a15.34,15.34,0,0,1,9.07-3.3,13.33,13.33,0,0,1,10.9,5q4,5,4,13.42v30.15H239.63V288.51a8.77,8.77,0,0,0-.65-4.11,2.7,2.7,0,0,0-2.5-1q-3,0-3,4.44v25.86H215.62V248.52Z"/><path class="cls-1" d="M290.26,295.81v18.46a23.14,23.14,0,0,1-4,.39,24.47,24.47,0,0,1-17.9-7.07A24.88,24.88,0,0,1,286,265.12q11.55,0,18.21,6.76t6.65,18.44v23.33H293v-22a9.24,9.24,0,0,0-1.83-6,6.07,6.07,0,0,0-4.94-2.24,7,7,0,0,0-5.06,11.79,6.33,6.33,0,0,0,4.72,1.91A8.19,8.19,0,0,0,290.26,295.81Z"/><path class="cls-1" d="M345.91,248.52h17.85v39.65q0,10.93-5.72,17.8a23.5,23.5,0,0,1-8.38,6.3,25.47,25.47,0,0,1-28.37-4.82,23.62,23.62,0,0,1-7.3-17.56,24,24,0,0,1,7.25-17.42,23.35,23.35,0,0,1,17.18-7.35c1.05,0,2.64.1,4.77.29v19.66a7.07,7.07,0,0,0-4.39-1.72,6.4,6.4,0,0,0-4.74,2,6.74,6.74,0,0,0-2,4.89,6.35,6.35,0,0,0,2.05,4.75,6.82,6.82,0,0,0,4.91,2q6.87,0,6.87-9.5Z"/><path class="cls-1" d="M391.56,265.07a23.59,23.59,0,0,1,17.35,7.28,24.69,24.69,0,0,1-.1,35,25.17,25.17,0,0,1-35.38,0,23.79,23.79,0,0,1-7.35-17.54,23.53,23.53,0,0,1,7.35-17.58A25,25,0,0,1,391.56,265.07Zm-.48,17.61a6.52,6.52,0,0,0-4.86,2.08,7.37,7.37,0,0,0,0,10.14,6.5,6.5,0,0,0,4.84,2.1,6.58,6.58,0,0,0,4.9-2.1,7.4,7.4,0,0,0,0-10.14A6.6,6.6,0,0,0,391.08,282.68Z"/><path class="cls-1" d="M419.51,266.75h17.84v25.62a9.85,9.85,0,0,0,.62,4.18,2.33,2.33,0,0,0,2.25,1.17c2,0,3-1.79,3-5.35V266.75h17.85v25.62a9.44,9.44,0,0,0,.65,4.18,2.35,2.35,0,0,0,2.26,1.17c2,0,3-1.79,3-5.35V266.75h17.85V296a19,19,0,0,1-5.39,13.63,17.48,17.48,0,0,1-13.08,5.61q-7.92,0-14.22-6.68-7,6.67-14,6.68a17.71,17.71,0,0,1-14.32-6.49q-4.25-5.12-4.24-14.75Z"/><path class="cls-1" d="M308.4,0H64.45C28.86,0,0,31.59,0,70.57v73.18c0,39,28.86,70.56,64.45,70.56H131a8.74,8.74,0,0,0,6.46-2.93L314.86,17.09C320.62,10.78,316.54,0,308.4,0Z"/><path class="cls-2" d="M423.15,0H402a8.74,8.74,0,0,0-6.46,2.93L218.09,197.22c-5.76,6.31-1.69,17.09,6.46,17.09h198.6c35.59,0,64.45-31.59,64.45-70.56V70.57C487.6,31.59,458.74,0,423.15,0Z"/></svg>