<svg id="Ebene_1" data-name="Ebene 1" xmlns="http://www.w3.org/2000/svg" viewBox="0 0 800 525"><defs><style>.cls-1{fill:#188f9e;}.cls-2{fill:#fff;}</style></defs><title>LogoSchwarz</title><g id="Logo"><path class="cls-1" d="M476.8,111.3H146.93C96.71,111.3,56,155.88,56,210.87V314.13c0,55,40.71,99.57,90.93,99.57h79.51a12.36,12.36,0,0,0,9.12-4.14L485.92,135.41C494.05,126.51,488.29,111.3,476.8,111.3Z"/><path class="cls-2" d="M653.07,111.3H608.85a12.36,12.36,0,0,0-9.12,4.14L349.37,389.59c-8.13,8.9-2.38,24.11,9.12,24.11H653.07c50.22,0,90.93-44.58,90.93-99.57V210.87C744,155.88,703.29,111.3,653.07,111.3Z"/></g></svg>