<svg xmlns="http://www.w3.org/2000/svg" viewBox="0 0 65 625"><defs><style>.cls-1{fill:#e8e9eb;}.cls-2{opacity:0.1;}</style></defs><title>Modul</title><g id="Overview"><path class="cls-1" d="M52.13,615.68c-6.9-1.07-11.42-5-13.5-12.6A36.36,36.36,0,0,1,37.55,595V30A36.36,36.36,0,0,1,38.63,22c2.08-7.57,6.6-11.52,13.5-12.6,8-1.25,12.5-.47,12.42-6.12,0-3.38-10-4.2-17.67-1.88C37.75,4.1,34.88,8.6,32.5,13.6c-2.37-5-5.25-9.5-14.37-12.25C10.42-1,.5-.15.45,3.23.37,8.88,4.88,8.1,12.88,9.35c6.89,1.08,11.41,5,13.5,12.6A37,37,0,0,1,27.45,30V595a37,37,0,0,1-1.07,8.07c-2.09,7.57-6.61,11.53-13.5,12.6-8,1.25-12.51.47-12.43,6.13,0,3.37,10,4.19,17.68,1.87,9.12-2.75,12-7.25,14.37-12.25,2.38,5,5.25,9.5,14.38,12.25,7.7,2.32,17.62,1.5,17.67-1.87C64.63,616.15,60.13,616.93,52.13,615.68Z"/><path class="cls-2" d="M52.13,615.68c-6.9-1.07-11.42-5-13.5-12.6A36.36,36.36,0,0,1,37.55,595V30A36.36,36.36,0,0,1,38.63,22c2.08-7.57,6.6-11.52,13.5-12.6,8-1.25,12.5-.47,12.42-6.12,0-3.38-10-4.2-17.67-1.88C37.75,4.1,34.88,8.6,32.5,13.6V611.43c2.38,5,5.25,9.5,14.38,12.25,7.7,2.32,17.62,1.5,17.67-1.87C64.63,616.15,60.13,616.93,52.13,615.68Z"/></g></svg>